# xmcd
#
# Track frame offsets: 
#        150
#        13416
#        23802
#        35684
#        48870
#        60116
#        72780
#        86693
#        98135
#        109468
#        119259
#        130835
#        142308
#        152430
#        163692
#        173835
#        185701
#        197394
#        208560
#        221319
#        232041
#        243635
#        252793
#        264660
#
# Disc length: 3699 seconds
#
# Revision: 2
# Processed by: cddbd v1.5.2PL0 Copyright (c) Steve Scherf et al.
# Submitted via: ExactAudioCopyFreeDBPlugin 1.0
#
DISCID=560e7118
DTITLE=The Royals - The Federal Singles 
DYEAR=2005
DGENRE=R&B
TTITLE0=Every Beat Of My Heart
TTITLE1=All Night Long
TTITLE2=I Know I Love You So
TTITLE3=Starting From Tonight
TTITLE4=Fifth Street Blues
TTITLE5=Moonrise
TTITLE6=A Love In My Heart
TTITLE7=I'll Never Let Her Go
TTITLE8=What Did I Do
TTITLE9=Are You Forgetting
TTITLE10=The Shrine Of St. Cecilia
TTITLE11=I Feel So Blue
TTITLE12=Get It
TTITLE13=No, It Ain't
TTITLE14=I Feel That-A-Way
TTITLE15=Hello Miss Fine
TTITLE16=Someone Like You
TTITLE17=That's It
TTITLE18=Work With Me Annie
TTITLE19=Until I Die
TTITLE20=Give It Up
TTITLE21=That Woman
TTITLE22=The Shrine Of St. Cecilia (Take 2)
TTITLE23=Work With Me Annie (Take 2)
EXTD=featuring Charles Sutton and Hank Ballard
EXTT0=
EXTT1=
EXTT2=
EXTT3=
EXTT4=
EXTT5=
EXTT6=
EXTT7=
EXTT8=
EXTT9=
EXTT10=
EXTT11=
EXTT12=
EXTT13=
EXTT14=
EXTT15=
EXTT16=
EXTT17=
EXTT18=
EXTT19=
EXTT20=
EXTT21=
EXTT22=
EXTT23=
PLAYORDER=
